<?xml version="1.0" standalone="no"?>
<!DOCTYPE svg PUBLIC "-//W3C//DTD SVG 20010904//EN"
 "http://www.w3.org/TR/2001/REC-SVG-20010904/DTD/svg10.dtd">
<svg version="1.0" xmlns="http://www.w3.org/2000/svg"
 width="1280.000000pt" height="1283.000000pt" viewBox="0 0 1280.000000 1283.000000"
 preserveAspectRatio="xMidYMid meet">
<metadata>
Created by potrace 1.16, written by Peter Selinger 2001-2019
</metadata>
<g transform="translate(0.000000,1283.000000) scale(0.100000,-0.100000)"
fill="white" stroke="none">
<path d="M5950 12819 c-1407 -104 -2712 -648 -3775 -1573 -148 -129 -450 -431
-587 -589 -716 -817 -1211 -1794 -1442 -2846 -56 -255 -89 -468 -128 -821 -17
-156 -17 -962 0 -1120 78 -717 199 -1223 434 -1815 94 -237 312 -681 433 -885
562 -939 1305 -1683 2244 -2247 202 -122 648 -342 873 -432 584 -234 1137
-369 1793 -438 215 -22 953 -26 1160 -5 741 74 1376 236 2010 512 178 78 530
258 695 356 1058 630 1901 1529 2449 2614 380 752 585 1465 673 2345 18 177
18 933 0 1110 -88 881 -292 1592 -673 2345 -670 1328 -1795 2386 -3165 2979
-665 287 -1364 457 -2109 511 -159 11 -727 11 -885 -1z m3266 -4153 c195 -52
345 -223 373 -427 9 -62 11 -547 9 -1859 l-3 -1775 -23 -66 c-43 -128 -143
-246 -257 -304 -117 -59 83 -55 -2910 -55 -2438 0 -2757 2 -2810 15 -175 46
-317 186 -369 364 -14 49 -16 237 -16 1870 0 1217 4 1831 11 1861 40 174 203
338 375 379 23 5 1179 9 2804 10 2308 1 2773 -1 2816 -13z"/>
<path d="M4015 8026 c-55 -25 -110 -81 -132 -134 -8 -19 -15 -63 -15 -97 -2
-118 -13 -105 667 -765 337 -327 612 -598 611 -601 0 -3 -281 -277 -622 -607
-655 -634 -646 -624 -660 -727 -15 -105 59 -224 161 -258 72 -25 159 -22 220
7 38 19 198 168 664 619 l615 595 223 -216 c298 -288 347 -323 501 -363 189
-48 400 -1 549 123 28 24 131 117 229 208 98 91 199 184 224 207 l46 42 15
-24 c8 -13 122 -129 254 -257 132 -128 399 -387 594 -576 194 -189 372 -353
395 -365 32 -17 58 -22 121 -22 70 0 87 4 133 29 119 67 165 213 103 334 -12
23 -194 207 -463 467 -628 607 -799 776 -796 784 2 3 71 71 153 151 547 528
1089 1069 1108 1104 27 54 29 165 3 216 -25 49 -74 98 -121 123 -58 31 -183
30 -243 -1 -26 -14 -418 -387 -1034 -985 -545 -529 -1003 -970 -1018 -979 -37
-24 -107 -32 -158 -18 -38 10 -159 123 -1049 987 -810 786 -1015 980 -1057
999 -69 32 -153 32 -221 0z"/>
</g>
</svg>
