<svg id="Capa_1" enable-background="new 0 0 512 512" height="512" viewBox="0 0 512 512" width="512" xmlns="http://www.w3.org/2000/svg" xmlns:xlink="http://www.w3.org/1999/xlink"><linearGradient id="SVGID_1_" gradientUnits="userSpaceOnUse" x1="256" x2="256" y1="512" y2="0"><stop offset="0" stop-color="#a93aff"/><stop offset="1" stop-color="#ff81ff"/></linearGradient><g><g><path d="m165 271h-15v-15c0-8.284-6.716-15-15-15s-15 6.716-15 15v15h-15c-8.284 0-15 6.716-15 15s6.716 15 15 15h15v15c0 8.284 6.716 15 15 15s15-6.716 15-15v-15h15c8.284 0 15-6.716 15-15s-6.716-15-15-15zm242 0h-15v-15c0-8.284-6.716-15-15-15s-15 6.716-15 15v15h-15c-8.284 0-15 6.716-15 15s6.716 15 15 15h15v15c0 8.284 6.716 15 15 15s15-6.716 15-15v-15h15c8.284 0 15-6.716 15-15s-6.716-15-15-15zm-181 30c-8.284 0-15 6.716-15 15s6.716 15 15 15 15-6.716 15-15-6.716-15-15-15zm60 0c-8.284 0-15 6.716-15 15s6.716 15 15 15 15-6.716 15-15-6.716-15-15-15zm223.982 123.933-29.718-158.033c-.007-.04-.014-.08-.021-.119-9.204-49.705-52.623-85.781-103.243-85.781h-242c-50.418 0-93.806 35.905-103.165 85.371-.005.024-.008.048-.013.072l-29.801 158.473c-1.341 7.085-2.021 14.334-2.021 21.544 0 36.139 29.401 65.54 65.54 65.54 30.13 0 56.275-20.415 63.593-49.685l17.613-71.315h218.508l17.624 71.356c7.307 29.229 33.452 49.644 63.582 49.644 36.139 0 65.54-29.401 65.54-65.54 0-7.21-.68-14.459-2.018-21.527zm-409.963 30.147c-3.963 15.85-18.141 26.92-34.479 26.92-19.597 0-35.54-15.943-35.54-35.54 0-5.344.504-10.716 1.5-15.983l16.208-86.189c15.538 23.193 40.062 39.88 68.551 45.034zm346.441 26.92c-16.338 0-30.516-11.07-34.468-26.879l-20.43-82.718c-1.654-6.697-7.664-11.403-14.562-11.403h-242c-46.852 0-82.459-42.721-73.688-89.048 6.682-35.318 37.672-60.952 73.688-60.952h242c36.003 0 66.905 25.535 73.657 60.783.009.051 29.846 158.71 29.846 158.71.993 5.251 1.497 10.623 1.497 15.967 0 19.597-15.943 35.54-35.54 35.54zm-243.465-430.004c14.185-14.184 33.009-21.996 53.005-21.996s38.82 7.812 53.005 21.996c5.857 5.858 15.355 5.858 21.213 0s5.858-15.355 0-21.213c-19.851-19.851-46.209-30.783-74.218-30.783s-54.367 10.932-74.218 30.782c-5.858 5.858-5.858 15.355 0 21.213 5.857 5.859 15.355 5.859 21.213.001zm84.824 42.398c5.858-5.858 5.858-15.355 0-21.213-8.499-8.5-19.798-13.181-31.819-13.181s-23.32 4.681-31.819 13.18c-5.858 5.858-5.858 15.355 0 21.213 5.857 5.857 15.355 5.857 21.213 0 2.833-2.833 6.599-4.393 10.606-4.393s7.773 1.56 10.606 4.393c5.857 5.858 15.355 5.858 21.213.001zm-46.819 40.606c0 8.284 6.716 15 15 15s15-6.716 15-15-6.716-15-15-15-15 6.716-15 15z" fill="url(#SVGID_1_)"/></g></g></svg>