<svg id="Layer_1" height="512" viewBox="0 0 128 128" width="512" xmlns="http://www.w3.org/2000/svg" xmlns:xlink="http://www.w3.org/1999/xlink" data-name="Layer 1"><linearGradient id="linear-gradient" gradientUnits="userSpaceOnUse" x1="107.674" x2="-9.65" y1="137.498" y2="20.175"><stop offset="0" stop-color="#1bce89"/><stop offset="1" stop-color="#4e8ed5"/></linearGradient><path d="m19.433 93.888a14.68 14.68 0 1 0 14.68 14.68 14.7 14.7 0 0 0 -14.68-14.68zm0 25.859a11.18 11.18 0 1 1 11.18-11.18 11.192 11.192 0 0 1 -11.18 11.18zm103.817 1.453a1.75 1.75 0 0 1 -1.75 1.75h-21.666a1.75 1.75 0 0 1 -1.75-1.75 91.385 91.385 0 0 0 -91.284-91.284h-.3a1.75 1.75 0 0 1 -1.75-1.75v-21.666a1.75 1.75 0 0 1 1.75-1.75h.3a117.07 117.07 0 0 1 26.421 3.01 1.75 1.75 0 1 1 -.791 3.409 113.492 113.492 0 0 0 -24.18-2.909v18.167a94.889 94.889 0 0 1 93.318 93.021h18.168a113.391 113.391 0 0 0 -65.457-100.767 1.75 1.75 0 0 1 1.473-3.175 116.893 116.893 0 0 1 67.498 105.694zm-82.72-109.675a1.752 1.752 0 0 1 2.2-1.126c1.922.623 3.857 1.307 5.751 2.032a1.75 1.75 0 1 1 -1.249 3.269c-1.836-.7-3.713-1.367-5.576-1.971a1.75 1.75 0 0 1 -1.126-2.204zm70.67 86.375a106.122 106.122 0 0 0 -13.572-33.13 1.75 1.75 0 1 1 2.97-1.852 109.592 109.592 0 0 1 14.019 34.22 1.75 1.75 0 1 1 -3.416.762zm-31.281 23.3a1.75 1.75 0 0 1 -1.75 1.75h-21.669a1.75 1.75 0 0 1 -1.75-1.75 48.094 48.094 0 0 0 -20.214-39.1 1.75 1.75 0 1 1 2.029-2.852 51.617 51.617 0 0 1 21.658 40.194h18.177a69.7 69.7 0 0 0 -68.15-67.842v18.17a50.8 50.8 0 0 1 20.739 5.016 1.75 1.75 0 1 1 -1.515 3.155 47.391 47.391 0 0 0 -20.674-4.694h-.3a1.75 1.75 0 0 1 -1.75-1.747v-21.668a1.75 1.75 0 0 1 1.75-1.75h.3a73.2 73.2 0 0 1 73.119 73.118zm-9.766-5.841a63.534 63.534 0 0 0 -10.068-28.886 1.75 1.75 0 1 1 2.93-1.916 67.054 67.054 0 0 1 10.624 30.481 1.75 1.75 0 0 1 -1.583 1.9q-.081.007-.161.007a1.75 1.75 0 0 1 -1.742-1.589z" fill="url(#linear-gradient)"/></svg>