<svg id="Gradient" height="512" viewBox="0 0 512 512" width="512" xmlns="http://www.w3.org/2000/svg" xmlns:xlink="http://www.w3.org/1999/xlink"><linearGradient id="linear-gradient" gradientUnits="userSpaceOnUse" x1="256" x2="256" y1="495.994" y2="16"><stop offset="0" stop-color="#12c2e9"/><stop offset=".5" stop-color="#c471ed"/><stop offset="1" stop-color="#f64f59"/></linearGradient><path d="m40 448h377.849l16.61 34.511a24.006 24.006 0 0 0 32.087 11.06 24 24 0 0 0 11.078-32.053l-6.505-13.518h.881a24.028 24.028 0 0 0 24-24v-384a24.028 24.028 0 0 0 -24-24h-432a24.028 24.028 0 0 0 -24 24v384a24.028 24.028 0 0 0 24 24zm423.6 26.6a8 8 0 0 1 -14.738.932l-34.22-71.1 14.383-7.009 34.2 71.064a7.951 7.951 0 0 1 .375 6.113zm-263.6-298.6h-136v-16h56a8 8 0 0 0 0-16h-56v-16h208v34.267a112.1 112.1 0 0 0 -27.166 45.733h-180.834v-16h136a8 8 0 0 0 0-16zm152-31.436a96 96 0 1 1 -96 96 96.109 96.109 0 0 1 96-96zm55.7 245.456-6.938-14.42 14.383-7.01 6.939 14.418zm-375.7-350.02a8.009 8.009 0 0 1 8-8h432a8.009 8.009 0 0 1 8 8v40h-448zm0 56h448v328a8.009 8.009 0 0 1 -8 8h-8.582l-22.781-47.334a7.959 7.959 0 0 0 -.561-1.524 8.072 8.072 0 0 0 -.8-1.3l-13.2-27.431a8 8 0 0 0 -10.713-3.722l-7.191 3.5-6.472-13.28a111.974 111.974 0 1 0 -113.7-192.203v-28.706a8 8 0 0 0 -8-8h-224a8 8 0 0 0 -8 8v96a8 8 0 0 0 8 8h185.227a112.009 112.009 0 0 0 145.64 123l6.921 14.2-7.192 3.5a8 8 0 0 0 -3.7 10.661l27.253 56.639h-370.149a8.009 8.009 0 0 1 -8-8zm96-40a8 8 0 1 1 -8-8 8 8 0 0 1 8 8zm-32 0a8 8 0 1 1 -8-8 8 8 0 0 1 8 8zm-32 0a8 8 0 1 1 -8-8 8 8 0 0 1 8 8zm-16 192a8 8 0 0 1 8-8h64a8 8 0 0 1 0 16h-64a8 8 0 0 1 -8-8zm0 32a8 8 0 0 1 8-8h144a8 8 0 0 1 0 16h-144a8 8 0 0 1 -8-8zm0 32a8 8 0 0 1 8-8h64a8 8 0 0 1 0 16h-64a8 8 0 0 1 -8-8zm0 32a8 8 0 0 1 8-8h184a8 8 0 0 1 0 16h-184a8 8 0 0 1 -8-8zm0 32a8 8 0 0 1 8-8h64a8 8 0 0 1 0 16h-64a8 8 0 0 1 -8-8zm0 32a8 8 0 0 1 8-8h256a8 8 0 0 1 0 16h-256a8 8 0 0 1 -8-8zm296-160v-16a8 8 0 0 1 16 0v16a8 8 0 0 1 -16 0zm-32 0v-16a8 8 0 0 1 16 0v16a8 8 0 0 1 -16 0zm64 0v-32a8 8 0 0 1 16 0v32a8 8 0 0 1 -16 0zm-24.023 72.588a80 80 0 1 0 -80-80 80.091 80.091 0 0 0 80 80zm0-144a64 64 0 1 1 -64 64 64.073 64.073 0 0 1 64-64z" fill="url(#linear-gradient)"/></svg>