<?xml version="1.0" encoding="iso-8859-1"?>
<!-- Generator: Adobe Illustrator 19.0.0, SVG Export Plug-In . SVG Version: 6.00 Build 0)  -->
<svg version="1.1" id="Capa_1" xmlns="http://www.w3.org/2000/svg" xmlns:xlink="http://www.w3.org/1999/xlink" x="0px" y="0px"
	 viewBox="0 0 368 368" style="enable-background:new 0 0 368 368;" xml:space="preserve">
<path style="fill:#CCE4FF;" d="M360,152v32c0,8.8-7.2,16-16,16h-56v144c0,8.8-7.2,16-16,16h-32c-8.8,0-16-7.2-16-16V200h-56
	c-8.8,0-16-7.2-16-16v-32c0-8.8,7.2-16,16-16h176C352.8,136,360,143.2,360,152z"/>
<path style="fill:#007AFF;" d="M344,128H176V80h72c13.232,0,24-10.768,24-24V24c0-13.232-10.768-24-24-24H24C10.768,0,0,10.768,0,24
	v32c0,13.232,10.768,24,24,24h72v232c0,13.232,10.768,24,24,24h32c13.232,0,24-10.768,24-24v-64c0-4.416-3.576-8-8-8s-8,3.584-8,8
	v64c0,4.408-3.584,8-8,8h-32c-4.416,0-8-3.592-8-8V72c0-4.416-3.576-8-8-8H24c-4.416,0-8-3.592-8-8V24c0-4.408,3.584-8,8-8h224
	c4.416,0,8,3.592,8,8v32c0,4.408-3.584,8-8,8h-80c-4.424,0-8,3.584-8,8v57.472c-9.288,3.312-16,12.112-16,22.528v32
	c0,13.232,10.768,24,24,24h48v136c0,13.232,10.768,24,24,24h32c13.232,0,24-10.768,24-24V208h48c13.232,0,24-10.768,24-24v-32
	C368,138.768,357.232,128,344,128z M352,184c0,4.408-3.584,8-8,8h-56c-4.424,0-8,3.584-8,8v144c0,4.408-3.584,8-8,8h-32
	c-4.416,0-8-3.592-8-8V200c0-4.416-3.576-8-8-8h-56c-4.416,0-8-3.592-8-8v-32c0-4.408,3.584-8,8-8h176c4.416,0,8,3.592,8,8V184z"/>
<g>
</g>
<g>
</g>
<g>
</g>
<g>
</g>
<g>
</g>
<g>
</g>
<g>
</g>
<g>
</g>
<g>
</g>
<g>
</g>
<g>
</g>
<g>
</g>
<g>
</g>
<g>
</g>
<g>
</g>
</svg>
